<?xml version="1.0" encoding="UTF-8" standalone="no"?><svg id="Vrstva_1" data-name="Vrstva 1" xmlns="http://www.w3.org/2000/svg" viewBox="0 0 328.57 100.06"><defs><style>.cls-1{fill:#23bae2;}.cls-2{fill:#3197bc;}.cls-3{fill:#89ba17;}.cls-4{fill:#6da025;}.cls-5{fill:#111211;}</style></defs><path class="cls-1" d="M21.74,0A21.69,21.69,0,0,0,0,21.79V81.13c12.75,0,21.63-9.4,21.63-21.63V21.64h59.5c12.25,0,22.94-9.82,23-21.64Z"/><path class="cls-2" d="M21.63,59.5V21.64H20.28C8.2,21.64,0,31.91,0,44V81.13c12.55,0,21.35-9.66,21.63-21.63"/><path class="cls-3" d="M110.77,100.06a21.69,21.69,0,0,0,21.74-21.78V18.93a21.32,21.32,0,0,0-21.63,21.64V78.43H51.38c-12.26,0-23,9.82-23,21.63Z"/><path class="cls-4" d="M110.88,40.57V78.43h1.35c12.07,0,20.28-10.28,20.28-22.36V18.93c-12.55,0-21.35,9.66-21.63,21.64"/><path class="cls-5" d="M171.37,23.27h-.15a16.35,16.35,0,0,0-6.81,1.27c-1.35.64-2.55,1.68-2.73,2.89a2.07,2.07,0,0,0,0,.35v31.6h9.56V41.27h9.42A17,17,0,0,0,187.51,40c1.53-.75,2.73-1.89,2.73-3.2V23.27Zm9.27,11.33c0,.67-.6,1.23-1.37,1.61a8.53,8.53,0,0,1-3.44.63h-4.58V30.09a1.09,1.09,0,0,1,0-.18,2.27,2.27,0,0,1,1.36-1.45,8.3,8.3,0,0,1,3.42-.64h4.6Z"/><path class="cls-5" d="M238,32.29a17.29,17.29,0,0,0-6.95,1.28c-1.55.74-2.78,1.87-2.76,3.24V59.38h19.08a18.17,18.17,0,0,0,7.07-1.27,3.61,3.61,0,0,0,2.46-3.24V32.29Zm9.29,20.31c0,.66-.59,1.22-1.37,1.6a8.4,8.4,0,0,1-3.44.63h-4.59V39.09c0-.06,0-.12,0-.17a2.26,2.26,0,0,1,1.36-1.46,8.33,8.33,0,0,1,3.42-.63h4.6Z"/><path class="cls-5" d="M295.13,32.29a17.38,17.38,0,0,0-7,1.28c-1.54.74-2.78,1.87-2.76,3.24V59.38H304.5a18.17,18.17,0,0,0,7.07-1.27A3.61,3.61,0,0,0,314,54.87V32.29Zm9.29,20.31c0,.66-.6,1.22-1.37,1.6a8.34,8.34,0,0,1-3.43.63H295V39.09a.91.91,0,0,1,0-.17,2.26,2.26,0,0,1,1.36-1.46,8.33,8.33,0,0,1,3.42-.63h4.6Z"/><path class="cls-5" d="M220.91,33.56a16.52,16.52,0,0,0-6.82-1.27h-9.5v-9H195V59.38h9.58V36.83h4.59a8.08,8.08,0,0,1,3.41.63A2.28,2.28,0,0,1,214,38.92s0,.11,0,.17v7.12h0V59.37h9.56V36.81c0-1.36-1.14-2.53-2.65-3.25"/><path class="cls-5" d="M276.11,54.83a8.43,8.43,0,0,1-3.44-.63c-.77-.38-1.37-.94-1.37-1.6V36.81h9.53V32.29H271.3v-9a17,17,0,0,0-6.72,1.26c-1.55.76-2.82,1.89-2.8,3.26V54.87c0,1.37,1.14,2.49,2.68,3.24a16.8,16.8,0,0,0,6.82,1.27h9.55V54.83Z"/><path class="cls-5" d="M285.61,72.65a17.26,17.26,0,0,1,6.88,1.27c1.5.7,2.69,1.83,2.71,3.19v22.6h-9.59Zm0-9.05h9.59v4.53h-9.59Z"/><path class="cls-5" d="M190.26,68.15V63.59H171.37a16.65,16.65,0,0,0-7,1.28c-1.48.7-2.78,1.88-2.76,3.24v13.5h19V92.93c0,.67-.6,1.23-1.37,1.61a8.53,8.53,0,0,1-3.44.63H161.65v4.53h19a18.15,18.15,0,0,0,7.07-1.28,3.71,3.71,0,0,0,2.54-3.24v-18h-19V70.42a1.09,1.09,0,0,1,0-.18,2.21,2.21,0,0,1,1.36-1.44,8.3,8.3,0,0,1,3.41-.65h14.22Z"/><path class="cls-5" d="M309.69,72.63a17.42,17.42,0,0,0-7,1.27c-1.54.75-2.77,1.88-2.75,3.24V99.71h19.08a18,18,0,0,0,7.07-1.28,3.59,3.59,0,0,0,2.45-3.23V72.63ZM319,92.93c0,.66-.6,1.22-1.38,1.6a8.53,8.53,0,0,1-3.44.63h-4.58V79.42a.91.91,0,0,1,0-.17A2.26,2.26,0,0,1,311,77.79a8.36,8.36,0,0,1,3.42-.63H319Z"/><path class="cls-5" d="M271.32,63.59v9H262a18.31,18.31,0,0,0-7.17,1.27,3.85,3.85,0,0,0-2.6,3.24l0,18c0,1.32,1.11,2.5,2.55,3.24a17.28,17.28,0,0,0,7,1.28h19.1V63.59Zm0,31.57h-4.73a8.57,8.57,0,0,1-3.44-.63c-.77-.38-1.36-.94-1.36-1.6V79.42a.86.86,0,0,1,0-.17,2.25,2.25,0,0,1,1.37-1.46,8.24,8.24,0,0,1,3.41-.63h4.74Z"/><path class="cls-5" d="M237.82,72.63V95.16h-4.59a8.47,8.47,0,0,1-3.43-.63c-.78-.38-1.37-.94-1.38-1.6V72.63h-9.59V95.2c0,1.37,1.24,2.49,2.57,3.23a17.05,17.05,0,0,0,6.91,1.28h19.11V72.63Z"/><path class="cls-5" d="M209.34,95.16a8.47,8.47,0,0,1-3.43-.63c-.78-.38-1.37-.94-1.37-1.6V77.14h9.52V72.63h-9.52v-9a16.92,16.92,0,0,0-6.74,1.27c-1.54.76-2.8,1.88-2.79,3.25V95.19c0,1.38,1.14,2.5,2.68,3.24a16.63,16.63,0,0,0,6.81,1.28h9.56V95.17Z"/><path class="cls-5" d="M244.76,7.34V4.9h-5a9.22,9.22,0,0,0-3.75.7c-.83.4-1.5,1-1.48,1.74V19.51h5.15V8.57a.25.25,0,0,1,0-.09,1.23,1.23,0,0,1,.73-.79,4.41,4.41,0,0,1,1.85-.34h2.53Z"/><path class="cls-5" d="M185.81,4.9a9.27,9.27,0,0,0-3.75.69c-.84.41-1.49,1-1.48,1.75V19.51h10.28a9.93,9.93,0,0,0,3.81-.69A2,2,0,0,0,196,17.08V4.9Zm5,11V16a1.23,1.23,0,0,1-.75.78,4.43,4.43,0,0,1-1.85.35h-2.51V8.57s0-.06,0-.09a1.22,1.22,0,0,1,.74-.79,4.47,4.47,0,0,1,1.86-.34h2.5Z"/><path class="cls-5" d="M214,7.34a2.14,2.14,0,0,0-1.44-1.74,8.7,8.7,0,0,0-3.66-.7H198.57V19.51h5.14V7.35h2.49a4.43,4.43,0,0,1,1.86.34,1.24,1.24,0,0,1,.75.79v11H214Z"/><path class="cls-5" d="M178,0H161.65V2.43h10.88l-6.95,9s-3.93,5.26-3.93,8.07H178V17H167.08l7.14-9.17S178,3.15,178,0"/><path class="cls-5" d="M221.72,4.9a9.24,9.24,0,0,0-3.75.69,2.26,2.26,0,0,0-1.46,1.64v9.85a2.17,2.17,0,0,0,1.35,1.74,9.88,9.88,0,0,0,3.78.69h10.27V17.08h-7.68a4.21,4.21,0,0,1-1.81-.34,1.2,1.2,0,0,1-.75-.78.38.38,0,0,1,0-.1v-.32h0v-.88h5.11a10.57,10.57,0,0,0,3.86-.72,2,2,0,0,0,1.29-1.72V4.9Zm5,6.09v.09a1.21,1.21,0,0,1-.74.78,4.23,4.23,0,0,1-1.84.35h-2.5V8.47a1.28,1.28,0,0,1,.74-.78,4.57,4.57,0,0,1,1.81-.34h2.55Z"/></svg>